# Blender v2.66 (sub 1) OBJ File: 'Tangram+Ponies.blend'
# www.blender.org
v -0.500000 0.000000 0.500001
v -1.000000 0.000000 1.000001
v 0.500000 0.000000 0.500000
v 0.000000 0.000000 1.000000
v -0.500000 0.050000 0.500001
v -1.000000 0.050000 1.000001
v 0.500000 0.050000 0.500000
v 0.000000 0.050000 1.000000
vt 0.000000 0.000000
vt 1.000000 0.000000
vt 0.000000 1.000000
vt 1.000000 1.000000
vn 0.000000 1.000000 -0.000000
vn -0.000000 -1.000000 0.000000
vn 0.000001 0.000000 1.000000
vn -0.000001 0.000000 -1.000000
vn 0.707107 0.000000 0.707106
vn -0.707107 0.000000 -0.707106
s off
f 2/1/1 4/2/1 1/3/1
f 6/1/2 5/2/2 8/3/2
f 1/1/3 3/2/3 7/4/3
f 4/1/4 2/2/4 8/3/4
f 2/1/5 1/2/5 5/4/5
f 3/1/6 4/2/6 7/3/6
f 4/2/1 3/4/1 1/3/1
f 5/2/2 7/4/2 8/3/2
f 5/3/3 1/1/3 7/4/3
f 2/2/4 6/4/4 8/3/4
f 6/3/5 2/1/5 5/4/5
f 4/2/6 8/4/6 7/3/6
