# Blender v2.66 (sub 1) OBJ File: 'Tangram+Ponies.blend'
# www.blender.org
v 0.500000 0.000000 0.500000
v 0.000000 0.000000 -0.000000
v 1.000000 0.000000 -0.000000
v 0.500000 0.000000 -0.500000
v 0.500000 0.030000 0.500000
v 0.000000 0.030000 -0.000000
v 1.000000 0.030000 -0.000000
v 0.500000 0.030000 -0.500000
vt 0.000000 0.000000
vt 1.000000 0.000000
vt 1.000000 1.000000
vt 0.000000 1.000000
vn -0.000000 -1.000000 0.000000
vn 0.000000 1.000000 0.000000
vn 0.707107 0.000000 0.707107
vn -0.707107 0.000000 -0.707107
vn -0.707107 0.000000 0.707107
vn 0.707107 0.000000 -0.707107
s off
f 2/1/1 4/2/1 3/3/1
f 6/1/2 5/2/2 7/3/2
f 1/1/3 3/2/3 7/3/3
f 4/1/4 2/2/4 8/4/4
f 2/1/5 1/2/5 6/4/5
f 3/1/6 4/2/6 8/3/6
f 1/4/1 2/1/1 3/3/1
f 8/4/2 6/1/2 7/3/2
f 5/4/3 1/1/3 7/3/3
f 2/2/4 6/3/4 8/4/4
f 1/2/5 5/3/5 6/4/5
f 7/4/6 3/1/6 8/3/6
